<svg enable-background="new 0 0 453.689 453.689" height="453.689" viewBox="0 0 453.689 453.689" width="453.689" xmlns="http://www.w3.org/2000/svg"><path d="m231.245 16.365c-9.744 0-19.646.582-29.551 1.737-4.649.592-9.272 1.285-13.729 2.049-2.869.442-5.512 1.29-7.894 2.511-93.32 12.423-164.763 82.37-178.08 174.695-16.314 113.114 69.374 219.701 191.009 237.595 10.694 1.574 21.703 2.372 32.717 2.372h.01c111.657 0 208.656-75.921 225.617-176.597 9.78-58.016-11.34-121.679-57.93-174.67-39.515-44.942-97.115-69.692-162.169-69.692zm13.086 51.92c43.407 3.062 81.091 21.048 112.071 53.506 36.444 38.182 52.704 91.861 42.432 140.084-13.065 61.383-77.612 123.521-175.675 123.521-11.382 0-22.589-.99-33.299-2.96-90.146-16.539-151.098-99.701-135.874-185.4 13.062-73.488 77.733-124.812 157.285-124.812 5.367 0 10.821.241 16.204.718 6.624.583 12.301-1.095 16.856-4.657z"/></svg>